<svg width="14" height="22" viewBox="0 0 14 22" fill="none" xmlns="http://www.w3.org/2000/svg">
<path d="M2.30775 21.5C1.80258 21.5 1.375 21.325 1.025 20.975C0.675 20.625 0.5 20.1974 0.5 19.6923V2.30775C0.5 1.80258 0.675 1.375 1.025 1.025C1.375 0.675 1.80258 0.5 2.30775 0.5H11.6923C12.1974 0.5 12.625 0.675 12.975 1.025C13.325 1.375 13.5 1.80258 13.5 2.30775V19.6923C13.5 20.1974 13.325 20.625 12.975 20.975C12.625 21.325 12.1974 21.5 11.6923 21.5H2.30775ZM2 17.25H12V4.75H2V17.25Z" fill="white"/>
</svg>
