<svg width="12" height="13" viewBox="0 0 12 13" fill="none" xmlns="http://www.w3.org/2000/svg">
<path d="M5.99055 12.2C5.20388 12.2 4.45721 12.0533 3.75055 11.76C3.05721 11.4533 2.44388 11.0333 1.91055 10.5C1.39055 9.96667 0.98388 9.35333 0.690547 8.66C0.397214 7.96667 0.250547 7.23333 0.250547 6.46C0.250547 5.64667 0.397214 4.89333 0.690547 4.2C0.997214 3.49333 1.41055 2.87333 1.93055 2.34C2.46388 1.80667 3.07721 1.39333 3.77055 1.1C4.46388 0.793333 5.20388 0.64 5.99055 0.64C6.77721 0.64 7.51721 0.793333 8.21055 1.1C8.91721 1.39333 9.53055 1.80667 10.0505 2.34C10.5839 2.87333 11.0039 3.49333 11.3105 4.2C11.6172 4.89333 11.7705 5.64667 11.7705 6.46C11.7705 7.23333 11.6172 7.96667 11.3105 8.66C11.0172 9.35333 10.6039 9.96667 10.0705 10.5C9.55055 11.0333 8.93721 11.4533 8.23055 11.76C7.53721 12.0533 6.79055 12.2 5.99055 12.2ZM5.99055 10.62C6.76388 10.62 7.45721 10.44 8.07055 10.08C8.69721 9.70667 9.19055 9.20667 9.55055 8.58C9.92388 7.94 10.1105 7.23333 10.1105 6.46C10.1105 5.64667 9.92388 4.92667 9.55055 4.3C9.19055 3.66 8.69721 3.16 8.07055 2.8C7.45721 2.42667 6.76388 2.24 5.99055 2.24C5.23055 2.24 4.53721 2.42667 3.91055 2.8C3.29721 3.16 2.80388 3.66 2.43055 4.3C2.05721 4.92667 1.87055 5.64667 1.87055 6.46C1.87055 7.23333 2.05721 7.94 2.43055 8.58C2.80388 9.20667 3.29721 9.70667 3.91055 10.08C4.53721 10.44 5.23055 10.62 5.99055 10.62ZM6.09055 9.38C5.27721 9.38 4.59721 9.11333 4.05055 8.58C3.50388 8.04667 3.23055 7.34667 3.23055 6.48C3.23055 5.61333 3.49055 4.91333 4.01055 4.38C4.54388 3.84667 5.23721 3.58 6.09055 3.58C6.66388 3.58 7.17055 3.7 7.61055 3.94C8.05055 4.18 8.40388 4.57333 8.67055 5.12L7.29055 5.82C7.11721 5.54 6.93055 5.35333 6.73055 5.26C6.53055 5.15333 6.31721 5.1 6.09055 5.1C5.73055 5.1 5.43721 5.22667 5.21055 5.48C4.99721 5.72 4.89055 6.05333 4.89055 6.48C4.89055 6.90667 4.99721 7.24 5.21055 7.48C5.43721 7.72 5.73055 7.84 6.09055 7.84C6.30388 7.84 6.51055 7.79333 6.71055 7.7C6.92388 7.60667 7.11721 7.41333 7.29055 7.12L8.67055 7.82C8.40388 8.38 8.05055 8.78 7.61055 9.02C7.17055 9.26 6.66388 9.38 6.09055 9.38Z" fill="white"/>
</svg>
