<svg width="18" height="18" viewBox="0 0 18 18" fill="none" xmlns="http://www.w3.org/2000/svg">
<path d="M8.99976 10.75L2.87476 16.875C2.64559 17.1042 2.35392 17.2188 1.99976 17.2188C1.64559 17.2188 1.35392 17.1042 1.12476 16.875C0.895589 16.6458 0.781006 16.3542 0.781006 16C0.781006 15.6458 0.895589 15.3542 1.12476 15.125L7.24976 9L1.12476 2.875C0.895589 2.64583 0.781006 2.35417 0.781006 2C0.781006 1.64583 0.895589 1.35417 1.12476 1.125C1.35392 0.895833 1.64559 0.78125 1.99976 0.78125C2.35392 0.78125 2.64559 0.895833 2.87476 1.125L8.99976 7.25L15.1248 1.125C15.3539 0.895833 15.6456 0.78125 15.9998 0.78125C16.3539 0.78125 16.6456 0.895833 16.8748 1.125C17.1039 1.35417 17.2185 1.64583 17.2185 2C17.2185 2.35417 17.1039 2.64583 16.8748 2.875L10.7498 9L16.8748 15.125C17.1039 15.3542 17.2185 15.6458 17.2185 16C17.2185 16.3542 17.1039 16.6458 16.8748 16.875C16.6456 17.1042 16.3539 17.2188 15.9998 17.2188C15.6456 17.2188 15.3539 17.1042 15.1248 16.875L8.99976 10.75Z" fill="white"/>
</svg>
