<svg width="24" height="18" viewBox="0 0 24 18" fill="none" xmlns="http://www.w3.org/2000/svg">
<path d="M2 2.75C1.64583 2.75 1.34896 2.63021 1.10938 2.39062C0.869792 2.15104 0.75 1.85417 0.75 1.5C0.75 1.14583 0.869792 0.848958 1.10938 0.609375C1.34896 0.369792 1.64583 0.25 2 0.25H22C22.3542 0.25 22.651 0.369792 22.8906 0.609375C23.1302 0.848958 23.25 1.14583 23.25 1.5C23.25 1.85417 23.1302 2.15104 22.8906 2.39062C22.651 2.63021 22.3542 2.75 22 2.75H2ZM2 17.75C1.64583 17.75 1.34896 17.6302 1.10938 17.3906C0.869792 17.151 0.75 16.8542 0.75 16.5C0.75 16.1458 0.869792 15.849 1.10938 15.6094C1.34896 15.3698 1.64583 15.25 2 15.25H22C22.3542 15.25 22.651 15.3698 22.8906 15.6094C23.1302 15.849 23.25 16.1458 23.25 16.5C23.25 16.8542 23.1302 17.151 22.8906 17.3906C22.651 17.6302 22.3542 17.75 22 17.75H2ZM2 10.25C1.64583 10.25 1.34896 10.1302 1.10938 9.89062C0.869792 9.65104 0.75 9.35417 0.75 9C0.75 8.64583 0.869792 8.34896 1.10938 8.10938C1.34896 7.86979 1.64583 7.75 2 7.75H22C22.3542 7.75 22.651 7.86979 22.8906 8.10938C23.1302 8.34896 23.25 8.64583 23.25 9C23.25 9.35417 23.1302 9.65104 22.8906 9.89062C22.651 10.1302 22.3542 10.25 22 10.25H2Z" fill="white"/>
</svg>
