<svg display="none" xmlns="http://www.w3.org/2000/svg">
	<symbol id="burger" viewBox="0 0 24 18">
		<g>
			<path
				d="M2 2.75C1.64583 2.75 1.34896 2.63021 1.10938 2.39062C0.869792 2.15104 0.75 1.85417 0.75 1.5C0.75 1.14583 0.869792 0.848958 1.10938 0.609375C1.34896 0.369792 1.64583 0.25 2 0.25H22C22.3542 0.25 22.651 0.369792 22.8906 0.609375C23.1302 0.848958 23.25 1.14583 23.25 1.5C23.25 1.85417 23.1302 2.15104 22.8906 2.39062C22.651 2.63021 22.3542 2.75 22 2.75H2ZM2 17.75C1.64583 17.75 1.34896 17.6302 1.10938 17.3906C0.869792 17.151 0.75 16.8542 0.75 16.5C0.75 16.1458 0.869792 15.849 1.10938 15.6094C1.34896 15.3698 1.64583 15.25 2 15.25H22C22.3542 15.25 22.651 15.3698 22.8906 15.6094C23.1302 15.849 23.25 16.1458 23.25 16.5C23.25 16.8542 23.1302 17.151 22.8906 17.3906C22.651 17.6302 22.3542 17.75 22 17.75H2ZM2 10.25C1.64583 10.25 1.34896 10.1302 1.10938 9.89062C0.869792 9.65104 0.75 9.35417 0.75 9C0.75 8.64583 0.869792 8.34896 1.10938 8.10938C1.34896 7.86979 1.64583 7.75 2 7.75H22C22.3542 7.75 22.651 7.86979 22.8906 8.10938C23.1302 8.34896 23.25 8.64583 23.25 9C23.25 9.35417 23.1302 9.65104 22.8906 9.89062C22.651 10.1302 22.3542 10.25 22 10.25H2Z"
				fill="white" />
		</g>
	</symbol>
	<symbol id="burger-close" viewBox="0 0 18 18">
		<g>
			<path
				d="M8.99976 10.75L2.87476 16.875C2.64559 17.1042 2.35392 17.2188 1.99976 17.2188C1.64559 17.2188 1.35392 17.1042 1.12476 16.875C0.895589 16.6458 0.781006 16.3542 0.781006 16C0.781006 15.6458 0.895589 15.3542 1.12476 15.125L7.24976 9L1.12476 2.875C0.895589 2.64583 0.781006 2.35417 0.781006 2C0.781006 1.64583 0.895589 1.35417 1.12476 1.125C1.35392 0.895833 1.64559 0.78125 1.99976 0.78125C2.35392 0.78125 2.64559 0.895833 2.87476 1.125L8.99976 7.25L15.1248 1.125C15.3539 0.895833 15.6456 0.78125 15.9998 0.78125C16.3539 0.78125 16.6456 0.895833 16.8748 1.125C17.1039 1.35417 17.2185 1.64583 17.2185 2C17.2185 2.35417 17.1039 2.64583 16.8748 2.875L10.7498 9L16.8748 15.125C17.1039 15.3542 17.2185 15.6458 17.2185 16C17.2185 16.3542 17.1039 16.6458 16.8748 16.875C16.6456 17.1042 16.3539 17.2188 15.9998 17.2188C15.6456 17.2188 15.3539 17.1042 15.1248 16.875L8.99976 10.75Z"
				fill="white" />
		</g>
	</symbol>
	<symbol id="copy" viewBox="0 0 12 13">
		<g>
			<path
				d="M5.99055 12.2C5.20388 12.2 4.45721 12.0533 3.75055 11.76C3.05721 11.4533 2.44388 11.0333 1.91055 10.5C1.39055 9.96667 0.98388 9.35333 0.690547 8.66C0.397214 7.96667 0.250547 7.23333 0.250547 6.46C0.250547 5.64667 0.397214 4.89333 0.690547 4.2C0.997214 3.49333 1.41055 2.87333 1.93055 2.34C2.46388 1.80667 3.07721 1.39333 3.77055 1.1C4.46388 0.793333 5.20388 0.64 5.99055 0.64C6.77721 0.64 7.51721 0.793333 8.21055 1.1C8.91721 1.39333 9.53055 1.80667 10.0505 2.34C10.5839 2.87333 11.0039 3.49333 11.3105 4.2C11.6172 4.89333 11.7705 5.64667 11.7705 6.46C11.7705 7.23333 11.6172 7.96667 11.3105 8.66C11.0172 9.35333 10.6039 9.96667 10.0705 10.5C9.55055 11.0333 8.93721 11.4533 8.23055 11.76C7.53721 12.0533 6.79055 12.2 5.99055 12.2ZM5.99055 10.62C6.76388 10.62 7.45721 10.44 8.07055 10.08C8.69721 9.70667 9.19055 9.20667 9.55055 8.58C9.92388 7.94 10.1105 7.23333 10.1105 6.46C10.1105 5.64667 9.92388 4.92667 9.55055 4.3C9.19055 3.66 8.69721 3.16 8.07055 2.8C7.45721 2.42667 6.76388 2.24 5.99055 2.24C5.23055 2.24 4.53721 2.42667 3.91055 2.8C3.29721 3.16 2.80388 3.66 2.43055 4.3C2.05721 4.92667 1.87055 5.64667 1.87055 6.46C1.87055 7.23333 2.05721 7.94 2.43055 8.58C2.80388 9.20667 3.29721 9.70667 3.91055 10.08C4.53721 10.44 5.23055 10.62 5.99055 10.62ZM6.09055 9.38C5.27721 9.38 4.59721 9.11333 4.05055 8.58C3.50388 8.04667 3.23055 7.34667 3.23055 6.48C3.23055 5.61333 3.49055 4.91333 4.01055 4.38C4.54388 3.84667 5.23721 3.58 6.09055 3.58C6.66388 3.58 7.17055 3.7 7.61055 3.94C8.05055 4.18 8.40388 4.57333 8.67055 5.12L7.29055 5.82C7.11721 5.54 6.93055 5.35333 6.73055 5.26C6.53055 5.15333 6.31721 5.1 6.09055 5.1C5.73055 5.1 5.43721 5.22667 5.21055 5.48C4.99721 5.72 4.89055 6.05333 4.89055 6.48C4.89055 6.90667 4.99721 7.24 5.21055 7.48C5.43721 7.72 5.73055 7.84 6.09055 7.84C6.30388 7.84 6.51055 7.79333 6.71055 7.7C6.92388 7.60667 7.11721 7.41333 7.29055 7.12L8.67055 7.82C8.40388 8.38 8.05055 8.78 7.61055 9.02C7.17055 9.26 6.66388 9.38 6.09055 9.38Z"
				fill="white" />
		</g>
	</symbol>
	<symbol id="instagram" viewBox="0 0 32 32">
		<g clip-path="url(#clip0_1275_366)">
			<path
				d="M16 2.88125C20.275 2.88125 20.7813 2.9 22.4625 2.975C24.025 3.04375 24.8688 3.30625 25.4313 3.525C26.175 3.8125 26.7125 4.1625 27.2688 4.71875C27.8313 5.28125 28.175 5.8125 28.4625 6.55625C28.6813 7.11875 28.9438 7.96875 29.0125 9.525C29.0875 11.2125 29.1063 11.7188 29.1063 15.9875C29.1063 20.2625 29.0875 20.7688 29.0125 22.45C28.9438 24.0125 28.6813 24.8563 28.4625 25.4188C28.175 26.1625 27.825 26.7 27.2688 27.2563C26.7063 27.8188 26.175 28.1625 25.4313 28.45C24.8688 28.6688 24.0188 28.9313 22.4625 29C20.775 29.075 20.2688 29.0938 16 29.0938C11.725 29.0938 11.2188 29.075 9.5375 29C7.975 28.9313 7.13125 28.6688 6.56875 28.45C5.825 28.1625 5.2875 27.8125 4.73125 27.2563C4.16875 26.6938 3.825 26.1625 3.5375 25.4188C3.31875 24.8563 3.05625 24.0063 2.9875 22.45C2.9125 20.7625 2.89375 20.2563 2.89375 15.9875C2.89375 11.7125 2.9125 11.2063 2.9875 9.525C3.05625 7.9625 3.31875 7.11875 3.5375 6.55625C3.825 5.8125 4.175 5.275 4.73125 4.71875C5.29375 4.15625 5.825 3.8125 6.56875 3.525C7.13125 3.30625 7.98125 3.04375 9.5375 2.975C11.2188 2.9 11.725 2.88125 16 2.88125ZM16 0C11.6563 0 11.1125 0.01875 9.40625 0.09375C7.70625 0.16875 6.5375 0.44375 5.525 0.8375C4.46875 1.25 3.575 1.79375 2.6875 2.6875C1.79375 3.575 1.25 4.46875 0.8375 5.51875C0.44375 6.5375 0.16875 7.7 0.09375 9.4C0.01875 11.1125 0 11.6562 0 16C0 20.3438 0.01875 20.8875 0.09375 22.5938C0.16875 24.2938 0.44375 25.4625 0.8375 26.475C1.25 27.5313 1.79375 28.425 2.6875 29.3125C3.575 30.2 4.46875 30.75 5.51875 31.1562C6.5375 31.55 7.7 31.825 9.4 31.9C11.1063 31.975 11.65 31.9937 15.9938 31.9937C20.3375 31.9937 20.8813 31.975 22.5875 31.9C24.2875 31.825 25.4563 31.55 26.4688 31.1562C27.5188 30.75 28.4125 30.2 29.3 29.3125C30.1875 28.425 30.7375 27.5313 31.1438 26.4813C31.5375 25.4625 31.8125 24.3 31.8875 22.6C31.9625 20.8938 31.9813 20.35 31.9813 16.0063C31.9813 11.6625 31.9625 11.1188 31.8875 9.4125C31.8125 7.7125 31.5375 6.54375 31.1438 5.53125C30.75 4.46875 30.2063 3.575 29.3125 2.6875C28.425 1.8 27.5313 1.25 26.4813 0.84375C25.4625 0.45 24.3 0.175 22.6 0.1C20.8875 0.01875 20.3438 0 16 0Z"
				/>
			<path
				d="M16 7.78125C11.4625 7.78125 7.78125 11.4625 7.78125 16C7.78125 20.5375 11.4625 24.2188 16 24.2188C20.5375 24.2188 24.2188 20.5375 24.2188 16C24.2188 11.4625 20.5375 7.78125 16 7.78125ZM16 21.3312C13.0563 21.3312 10.6687 18.9438 10.6687 16C10.6687 13.0563 13.0563 10.6687 16 10.6687C18.9438 10.6687 21.3312 13.0563 21.3312 16C21.3312 18.9438 18.9438 21.3312 16 21.3312Z"
				/>
			<path
				d="M26.4625 7.45611C26.4625 8.51861 25.6 9.37486 24.5438 9.37486C23.4813 9.37486 22.625 8.51236 22.625 7.45611C22.625 6.3936 23.4875 5.53735 24.5438 5.53735C25.6 5.53735 26.4625 6.39985 26.4625 7.45611Z"
				/>
		</g>
		<defs>
			<clipPath id="clip0_1275_366">
				<rect width="32" height="32" />
			</clipPath>
		</defs>
	</symbol>
	<symbol id="facebook" viewBox="0 0 32 32">
		<g clip-path="url(#clip0_1275_367)">
			<path
				d="M16 0C7.16352 0 0 7.16352 0 16C0 23.5034 5.16608 29.7997 12.135 31.529V20.8896H8.83584V16H12.135V13.8931C12.135 8.44736 14.5997 5.9232 19.9462 5.9232C20.96 5.9232 22.7091 6.12224 23.4246 6.32064V10.7526C23.047 10.713 22.391 10.6931 21.5763 10.6931C18.953 10.6931 17.9392 11.687 17.9392 14.2707V16H23.1654L22.2675 20.8896H17.9392V31.8829C25.8618 30.9261 32.0006 24.1805 32.0006 16C32 7.16352 24.8365 0 16 0Z"
				/>
		</g>
		<defs>
			<clipPath id="clip0_1275_367">
				<rect width="32" height="32" />
			</clipPath>
		</defs>
	</symbol>
	<symbol id="phone" viewBox="0 0 14 22">
		<g>
			<path
				d="M2.30775 21.5C1.80258 21.5 1.375 21.325 1.025 20.975C0.675 20.625 0.5 20.1974 0.5 19.6923V2.30775C0.5 1.80258 0.675 1.375 1.025 1.025C1.375 0.675 1.80258 0.5 2.30775 0.5H11.6923C12.1974 0.5 12.625 0.675 12.975 1.025C13.325 1.375 13.5 1.80258 13.5 2.30775V19.6923C13.5 20.1974 13.325 20.625 12.975 20.975C12.625 21.325 12.1974 21.5 11.6923 21.5H2.30775ZM2 17.25H12V4.75H2V17.25Z"
				 />
		</g>
	</symbol>
</svg>