<svg display="none" xmlns="http://www.w3.org/2000/svg">
	<symbol id="burger" viewBox="0 0 24 18">
		<g>
			<path
				d="M2 2.75C1.64583 2.75 1.34896 2.63021 1.10938 2.39062C0.869792 2.15104 0.75 1.85417 0.75 1.5C0.75 1.14583 0.869792 0.848958 1.10938 0.609375C1.34896 0.369792 1.64583 0.25 2 0.25H22C22.3542 0.25 22.651 0.369792 22.8906 0.609375C23.1302 0.848958 23.25 1.14583 23.25 1.5C23.25 1.85417 23.1302 2.15104 22.8906 2.39062C22.651 2.63021 22.3542 2.75 22 2.75H2ZM2 17.75C1.64583 17.75 1.34896 17.6302 1.10938 17.3906C0.869792 17.151 0.75 16.8542 0.75 16.5C0.75 16.1458 0.869792 15.849 1.10938 15.6094C1.34896 15.3698 1.64583 15.25 2 15.25H22C22.3542 15.25 22.651 15.3698 22.8906 15.6094C23.1302 15.849 23.25 16.1458 23.25 16.5C23.25 16.8542 23.1302 17.151 22.8906 17.3906C22.651 17.6302 22.3542 17.75 22 17.75H2ZM2 10.25C1.64583 10.25 1.34896 10.1302 1.10938 9.89062C0.869792 9.65104 0.75 9.35417 0.75 9C0.75 8.64583 0.869792 8.34896 1.10938 8.10938C1.34896 7.86979 1.64583 7.75 2 7.75H22C22.3542 7.75 22.651 7.86979 22.8906 8.10938C23.1302 8.34896 23.25 8.64583 23.25 9C23.25 9.35417 23.1302 9.65104 22.8906 9.89062C22.651 10.1302 22.3542 10.25 22 10.25H2Z"
				fill="white" />
		</g>
	</symbol>
	<symbol id="burger-close" viewBox="0 0 18 18">
		<g>
			<path
				d="M8.99976 10.75L2.87476 16.875C2.64559 17.1042 2.35392 17.2188 1.99976 17.2188C1.64559 17.2188 1.35392 17.1042 1.12476 16.875C0.895589 16.6458 0.781006 16.3542 0.781006 16C0.781006 15.6458 0.895589 15.3542 1.12476 15.125L7.24976 9L1.12476 2.875C0.895589 2.64583 0.781006 2.35417 0.781006 2C0.781006 1.64583 0.895589 1.35417 1.12476 1.125C1.35392 0.895833 1.64559 0.78125 1.99976 0.78125C2.35392 0.78125 2.64559 0.895833 2.87476 1.125L8.99976 7.25L15.1248 1.125C15.3539 0.895833 15.6456 0.78125 15.9998 0.78125C16.3539 0.78125 16.6456 0.895833 16.8748 1.125C17.1039 1.35417 17.2185 1.64583 17.2185 2C17.2185 2.35417 17.1039 2.64583 16.8748 2.875L10.7498 9L16.8748 15.125C17.1039 15.3542 17.2185 15.6458 17.2185 16C17.2185 16.3542 17.1039 16.6458 16.8748 16.875C16.6456 17.1042 16.3539 17.2188 15.9998 17.2188C15.6456 17.2188 15.3539 17.1042 15.1248 16.875L8.99976 10.75Z"
				fill="white" />
		</g>
	</symbol>
</svg>